<?xml version="1.0" encoding="UTF-8"?>
<svg width="318px" height="318px" viewBox="0 0 318 318" version="1.1" xmlns="http://www.w3.org/2000/svg" xmlns:xlink="http://www.w3.org/1999/xlink">
    <!-- Generator: Sketch 53.2 (72643) - https://sketchapp.com -->
    <title>Group 4</title>
    <desc>Created with Sketch.</desc>
    <defs>
        <polygon id="path-1" points="0 0.527376623 203.371932 0.527376623 203.371932 215.298625 0 215.298625"></polygon>
        <polygon id="path-3" points="0 215.472623 203.371932 215.472623 203.371932 0.701298701 0 0.701298701"></polygon>
    </defs>
    <g id="Page-1" stroke="none" stroke-width="1" fill="none" fill-rule="evenodd">
        <g id="Landing-yellow" transform="translate(-561.000000, -2964.000000)">
            <g id="Group-4" transform="translate(561.000000, 2964.000000)">
                <circle id="Oval" fill="#FFDE3D" cx="159" cy="159" r="159"></circle>
                <g id="Logo-yellow" transform="translate(57.000000, 51.000000)">
                    <g id="Group-20">
                        <g id="Group-3" transform="translate(0.000000, 0.173922)">
                            <mask id="mask-2" fill="white">
                                <use xlink:href="#path-1"></use>
                            </mask>
                            <g id="Clip-2"></g>
                            <path d="M144.135781,177.911626 C138.416096,187.158951 131.758849,194.806613 124.171726,200.855314 C116.580411,206.904717 108.275096,211.080951 99.2508904,213.388223 C90.2266849,215.695496 80.6191233,215.9136 70.4358904,214.038327 C60.249863,212.160951 49.8172192,207.89986 39.1456438,201.248743 C28.3224658,194.503652 19.8187397,186.96399 13.6260822,178.634665 C7.4320274,170.302535 3.36809589,161.564353 1.42520548,152.422925 C-0.517684932,143.280795 -0.475767123,133.954925 1.56073973,124.44321 C3.59165753,114.932197 7.46975342,105.553029 13.1887397,96.3057039 L72.4248904,0.527236364 L106.642397,21.851626 L48.2229452,116.308145 C45.2272192,121.152016 43.2249452,126.109496 42.2196164,131.174275 C41.2121918,136.242561 41.1660822,141.146743 42.0854795,145.885418 C42.9999863,150.626197 44.874411,155.049288 47.7087534,159.151184 C50.5368082,163.253782 54.2199863,166.716795 58.7547945,169.542327 C63.285411,172.367158 67.9739178,174.120405 72.822411,174.802068 C77.6660137,175.485834 82.4090137,175.185678 87.0507123,173.907912 C91.6861233,172.630847 96.0469726,170.416145 100.125575,167.261003 C104.202082,164.110769 107.739247,160.10986 110.734973,155.26599 L169.153726,60.8094701 L203.371932,82.1338597 L144.135781,177.911626 Z" id="Fill-1" fill="#000000" opacity="0.1" mask="url(#mask-2)"></path>
                        </g>
                        <path d="M26.8461205,57.7542623 L35.6195178,57.7542623 C36.9546,57.7542623 38.3686274,57.706574 39.8629973,57.6104961 C41.3559699,57.5151195 42.7078192,57.227587 43.9164493,56.7493013 C45.1229836,56.2703143 46.1241205,55.520626 46.9198603,54.4995351 C47.7142027,53.4791455 48.1117233,52.043587 48.1117233,50.1914571 C48.1117233,48.4683662 47.7617096,47.0973273 47.0630795,46.0755351 C46.3630521,45.0558468 45.4729973,44.2731974 44.3929151,43.7303922 C43.310737,43.1882883 42.0713671,42.8208078 40.6734082,42.6293532 C39.2747507,42.4378987 37.9082301,42.3418208 36.5731479,42.3418208 L26.8461205,42.3418208 L26.8461205,57.7542623 Z M11.9694904,29.7058208 L38.0989562,29.7058208 C41.5320247,29.7058208 44.7890384,30.0410416 47.8734904,30.7107818 C50.9565452,31.3812234 53.6581479,32.4983922 55.9796959,34.061587 C58.2991479,35.6261844 60.1428329,37.7321844 61.5107507,40.379587 C62.8765726,43.0283922 63.5605315,46.3315091 63.5605315,50.2875351 C63.5605315,55.0738987 62.3211616,59.1421325 59.8417233,62.4929377 C57.3622849,65.8430416 53.7384904,67.9658727 48.9703397,68.858626 L66.1356822,97.4807299 L48.3024493,97.4807299 L34.1887233,70.3902623 L26.8461205,70.3902623 L26.8461205,97.4807299 L11.9694904,97.4807299 L11.9694904,29.7058208 Z" id="Fill-4" fill-opacity="0.3" fill="#000000"></path>
                        <polygon id="Fill-6" fill-opacity="0.3" fill="#000000" points="5.29400959 130.982751 22.268626 130.982751 38.9575027 175.400205 39.1482288 175.400205 56.1221466 130.982751 72.0481192 130.982751 44.2021192 198.75766 32.2813932 198.75766"></polygon>
                        <path d="M126.888699,164.870416 C126.888699,168.062026 127.380534,170.981532 128.367,173.629636 C129.35137,176.278442 130.766096,178.575896 132.610479,180.521299 C134.454164,182.468805 136.663233,183.984312 139.238384,185.068519 C141.812836,186.154831 144.689096,186.696234 147.868562,186.696234 C151.047329,186.696234 153.924288,186.154831 156.49874,185.068519 C159.07389,183.984312 161.281562,182.468805 163.126644,180.521299 C164.96963,178.575896 166.383658,176.278442 167.370123,173.629636 C168.355192,170.981532 168.848425,168.062026 168.848425,164.870416 C168.848425,161.744026 168.355192,158.839247 167.370123,156.158883 C166.383658,153.478519 164.96963,151.166338 163.126644,149.218831 C161.281562,147.272727 159.07389,145.757922 156.49874,144.67161 C153.924288,143.587403 151.047329,143.044597 147.868562,143.044597 C144.689096,143.044597 141.812836,143.587403 139.238384,144.67161 C136.663233,145.757922 134.454164,147.272727 132.610479,149.218831 C130.766096,151.166338 129.35137,153.478519 128.367,156.158883 C127.380534,158.839247 126.888699,161.744026 126.888699,164.870416 M111.43989,164.870416 C111.43989,159.446571 112.346014,154.53187 114.157562,150.128416 C115.969808,145.724961 118.496753,141.976519 121.739096,138.880286 C124.981438,135.785455 128.827397,133.408753 133.27837,131.748779 C137.727247,130.089506 142.59111,129.25987 147.868562,129.25987 C153.145315,129.25987 158.008479,130.089506 162.459452,131.748779 C166.908329,133.408753 170.755685,135.785455 173.998027,138.880286 C177.24037,141.976519 179.767315,145.724961 181.579562,150.128416 C183.39111,154.53187 184.297233,159.446571 184.297233,164.870416 C184.297233,170.294961 183.39111,175.208961 181.579562,179.612416 C179.767315,184.01587 177.24037,187.765714 173.998027,190.860545 C170.755685,193.956779 166.908329,196.332779 162.459452,197.992052 C158.008479,199.650623 153.145315,200.480961 147.868562,200.480961 C142.59111,200.480961 137.727247,199.650623 133.27837,197.992052 C128.827397,196.332779 124.981438,193.956779 121.739096,190.860545 C118.496753,187.765714 115.969808,184.01587 114.157562,179.612416 C112.346014,175.208961 111.43989,170.294961 111.43989,164.870416" id="Fill-8" fill-opacity="0.3" fill="#000000"></path>
                        <mask id="mask-4" fill="white">
                            <use xlink:href="#path-3"></use>
                        </mask>
                        <g id="Clip-11"></g>
                        <polygon id="Fill-10" fill-opacity="0.3" fill="#000000" mask="url(#mask-4)" points="116.143068 43.5625714 177.110425 43.5625714 177.110425 29.7063117 116.143068 29.7063117"></polygon>
                        <polygon id="Fill-12" fill-opacity="0.3" fill="#000000" mask="url(#mask-4)" points="116.143068 69.9082597 177.110425 69.9082597 177.110425 56.052 116.143068 56.052"></polygon>
                        <polygon id="Fill-13" fill-opacity="0.3" fill="#000000" mask="url(#mask-4)" points="116.143068 96.2539481 177.110425 96.2539481 177.110425 82.3976883 116.143068 82.3976883"></polygon>
                        <polygon id="Fill-14" fill="#000000" mask="url(#mask-4)" points="147.339629 96.2540883 177.110355 96.2540883 177.110355 82.3978286 155.909725 82.3978286"></polygon>
                        <path d="M162.459173,131.748779 C158.0082,130.089506 153.145036,129.25987 147.868981,129.25987 C142.59083,129.25987 137.727666,130.089506 133.27809,131.748779 C128.827118,133.408753 124.981159,135.785455 121.738816,138.880286 C120.956351,139.62787 120.2172,140.415429 119.517871,141.239455 L114.497515,149.356286 C114.384337,149.613662 114.26557,149.86613 114.157981,150.128416 C112.346433,154.53187 111.44031,159.446571 111.44031,164.870416 C111.44031,170.294961 112.346433,175.208961 114.157981,179.612416 C115.969529,184.01587 118.497173,187.765714 121.738816,190.860545 C124.031022,193.048597 126.631323,194.870571 129.526447,196.340494 C133.032871,192.987584 136.311542,189.244052 139.366652,185.119013 C139.324036,185.101481 139.280721,185.086753 139.238104,185.068519 C136.663652,183.984312 134.453885,182.468805 132.6102,180.521299 C130.765816,178.575896 129.351789,176.278442 128.366721,173.629636 C127.380953,170.981532 126.888419,168.062026 126.888419,164.870416 C126.888419,161.744026 127.380953,158.839247 128.366721,156.158883 C129.351789,153.478519 130.765816,151.166338 132.6102,149.218831 C134.453885,147.272727 136.663652,145.757922 139.238104,144.67161 C141.813255,143.587403 144.688816,143.044597 147.868981,143.044597 C151.047049,143.044597 153.924008,143.587403 156.499159,144.67161 C158.755036,145.623273 160.728666,146.903844 162.424241,148.515429 L170.269858,135.828935 C167.913378,134.175974 165.311679,132.813351 162.459173,131.748779" id="Fill-15" fill="#000000" mask="url(#mask-4)"></path>
                        <path d="M31.1857315,196.005623 C32.4362795,196.936247 33.7245534,197.854247 35.0533479,198.757519 L44.2019096,198.757519 L56.6997041,168.340091 C53.0975671,165.787364 50.0955534,162.786506 47.7083342,159.324896 C47.1675945,158.542247 46.673663,157.74487 46.2027863,156.939078 L39.1480192,175.400065 L38.9572932,175.400065 L22.2684164,130.98261 L5.2938,130.98261 L31.1857315,196.005623 Z" id="Fill-16" fill="#000000" mask="url(#mask-4)"></path>
                        <path d="M26.8461205,97.4810104 L26.8461205,74.3977636 L13.1892986,96.4795558 C12.9825041,96.8126727 12.7840932,97.1471922 12.5828877,97.4810104 L26.8461205,97.4810104 Z" id="Fill-17" fill="#000000" mask="url(#mask-4)"></path>
                        <path d="M59.9749521,97.4810104 L63.1027192,92.4239455 L48.9701301,68.8589065 C53.7382808,67.9654519 57.3620753,65.8433221 59.8415137,62.4925169 C62.3209521,59.142413 63.5610205,55.0734779 63.5610205,50.2878156 C63.5610205,46.3310883 62.8770616,43.0286727 61.5105411,40.3798675 C60.1426233,37.7324649 58.299637,35.6264649 55.9794863,34.0618675 C55.0076918,33.4068545 53.964637,32.8352961 52.8587055,32.337374 L45.4148014,44.3730623 C46.0449658,44.839426 46.5996781,45.4004649 47.0628699,46.0758156 C47.7615,47.0969065 48.1122123,48.4686468 48.1122123,50.1917377 C48.1122123,52.0431662 47.7139932,53.479426 46.9203493,54.4991143 C46.123911,55.5209065 45.122774,56.2705948 43.9162397,56.7488805 C42.7076096,57.2278675 41.3557603,57.5146987 39.8634863,57.6107766 C38.925226,57.670387 38.0309795,57.7047506 37.1562945,57.7271922 L29.3246507,70.3905429 L34.1892123,70.3905429 L48.3029384,97.4810104 L59.9749521,97.4810104 Z" id="Fill-18" fill="#000000" mask="url(#mask-4)"></path>
                        <polygon id="Fill-19" fill="#000000" mask="url(#mask-4)" points="163.63371 69.9083299 177.110285 69.9083299 177.110285 65.9417844 169.153586 60.9829013"></polygon>
                    </g>
                </g>
            </g>
        </g>
    </g>
</svg>